<svg xmlns="http://www.w3.org/2000/svg" width="1093" height="304" stroke="#000" stroke-linecap="round" stroke-linejoin="round" fill="#fff" fill-rule="evenodd">
  <g stroke="none" class="B">
    <path d="M 313.8 93.5 c -3.8 -3.8 -5.7 -8.4 -5.7 -13.9 s 1.9 -10.1 5.7 -13.9 s 8.4 -5.7 13.9 -5.7 s 10.1 1.9 13.9 5.7 s 5.7 8.4 5.7 13.9 s -1.9 10.1 -5.7 13.9 s -8.4 5.7 -13.9 5.7 s -10.1 -1.9 -13.9 -5.7 z m 30.5 134.5 h -33.3 v -119.3 h 33.3 z m 22.6 -155 h 62.7 v 155 H 396.4 V 102.4 h -29.5 V 73 z m 115.2 8.6 c 10.3 -8.1 23.1 -12.2 38.5 -12.2 s 28.2 4.1 38.4 12.2 c 10.2 8.1 15.3 18.1 15.3 30 s -4.6 22.1 -13.7 30.7 c 12.9 9.9 19.3 22.9 19.3 39 c 0 13.6 -5.5 25.1 -16.4 34.4 c -10.9 9.3 -25.2 14 -42.8 14 s -31.9 -4.7 -42.8 -14 s -16.4 -20.8 -16.4 -34.4 c 0 -16.1 6.4 -29.1 19.3 -39 c -9.3 -8.7 -14 -19 -14 -30.8 s 5.1 -21.8 15.4 -29.9 z m 21.6 114.1 c 5.2 3.5 10.8 5.2 16.9 5.2 s 11.7 -1.7 16.9 -5.2 s 7.8 -8.5 7.8 -15.2 s -2.5 -11.8 -7.5 -15.3 s -10.7 -5.3 -17.1 -5.3 s -12 1.8 -17.1 5.3 s -7.5 8.6 -7.5 15.3 s 2.6 11.7 7.8 15.2 z m 2.1 -67.7 c 4.2 3.5 9.1 5.3 14.7 5.3 s 10.5 -1.8 14.7 -5.3 s 6.3 -7.9 6.3 -13.2 c 0 -5.2 -2.1 -9.6 -6.2 -13.2 s -9.1 -5.3 -14.9 -5.3 s -10.7 1.8 -14.9 5.3 s -6.2 7.9 -6.2 13.2 s 2.1 9.6 6.3 13.2 z m 134.9 33.5 v 66.5 h -33.3 v -119.3 h 33.3 v 13.3 c 10 -10.2 21.4 -15.3 33.9 -15.3 s 23.1 4.4 31.6 13.3 s 12.7 20.7 12.7 35.5 v 72.5 h -33.3 v -67.4 c 0 -18.3 -6.7 -27.5 -20.2 -27.5 c -6.6 0 -12.5 2.4 -17.4 7.2 s -7.4 11.9 -7.4 21.2 z m 211.7 49.2 c -13.5 12.7 -29.2 19.1 -47.3 19.1 s -33.1 -5.6 -44.9 -16.7 s -17.7 -26.1 -17.7 -44.9 s 6 -33.7 18.1 -44.8 c 12 -11.1 26.3 -16.6 42.7 -16.6 s 30.3 5 41.8 14.9 s 17.2 23.5 17.2 40.8 v 17.7 h -86.9 c 1 6.5 4.4 11.8 10.2 16 s 12.3 6.2 19.5 6.2 c 11.7 0 21.3 -3.9 28.8 -11.8 z m -31.9 -70.7 c -4.6 -3.8 -10.2 -5.8 -16.7 -5.8 s -12.6 2 -18.1 6 s -8.6 9.4 -9.5 16.2 h 52.3 c -0.7 -7.1 -3.4 -12.6 -8 -16.4 z m 91.3 -31.3 l 20.4 31.9 l 21.1 -31.9 h 39 l -41 58.3 l 42.6 61 h -39.7 l -23.3 -32.8 l -22.6 32.8 h -38.4 l 41.7 -60.8 l -39.5 -58.5 z m 140.3 23.9 v 53.4 c 0 4.6 1.2 8.2 3.5 10.8 c 2.4 2.6 5.2 3.9 8.4 3.9 c 6.2 0 11.5 -2.8 15.7 -8.4 l 12.4 23.3 c -10.3 9.5 -21.3 14.2 -32.7 14.2 s -21.1 -3.8 -29 -11.3 s -11.9 -17.8 -11.9 -30.8 v -55 h -14 v -23.9 h 14 V 73 h 33.5 v 35.7 h 28.8 v 23.9 z M 142 31.5 v 57.2 l 64.3 165.1 s 19.6 40.3 -36.5 50.1 h -128 s -52.3 -5.5 -39.8 -46.9 L 69.5 88.7 V 31.5 z" fill="#009688"/>
    <path d="M 143.3 24.8 H 66.2 c -6.2 0 -11.3 -5.6 -11.3 -12.4 S 60 0 66.2 0 h 77.1 c 6.3 0 11.3 5.6 11.3 12.4 s -5.1 12.4 -11.3 12.4 z" class="C" fill="#004d40"/>
    <path d="M 123 124.9 c 8.3 0 15 8.1 15 18.1 c 0 10 -6.8 18.1 -15 18.1 c -8.3 0 -15 -8.1 -15 -18.1 c 0 -10 6.7 -18.1 15 -18.1 z m -58.8 31.7 c 0 -8.5 5.6 -15.3 12.7 -15.3 s 12.7 6.8 12.7 15.3 s -5.6 15.3 -12.7 15.3 s -12.7 -6.8 -12.7 -15.3 z" fill="white"/>
    <path d="M 147.7 84.9 V 57.7 s 34.5 -7.6 51.7 32.5 c 0 0 -26.9 19.6 -51.7 -5.3 z m -84.5 0 V 57.7 s -34.5 -7.6 -51.7 32.5 c 0 0 26.8 19.6 51.7 -5.3 z" class="C" fill="#004d40"/>
    <path d="M 168.4 197.5 c -56.1 -17.4 -103.3 -8.1 -126.3 -1 l -23.2 56 c -10.5 33.4 33.2 37.8 33.2 37.8 h 106.9 c 46.9 -7.9 30.5 -40.4 30.5 -40.4 z" fill="white"/>
    <path d="M 87.6 218.3 c 0 6 -8.1 10.9 -18.1 10.9 s -18.1 -4.9 -18.1 -10.9 c 0 -6.1 8.1 -10.9 18.1 -10.9 s 18.1 4.9 18.1 10.9 z m 64.4 0 c 0 6 -8.1 10.9 -18.1 10.9 c -10 0 -18.1 -4.9 -18.1 -10.9 c 0 -6.1 8.1 -10.9 18.1 -10.9 c 10 0 18.1 4.9 18.1 10.9 z" class="C" fill="#004d40"/>
  </g>
</svg>